<svg width="465" height="459" viewBox="0 0 465 459" fill="none" xmlns="http://www.w3.org/2000/svg">
<path d="M102.099 458.1H2.8992V138.8H102.099V458.1ZM51.7992 99.6001C20.4992 99.6001 0.199219 77.4 0.199219 49.9C0.199219 21.9 21.0992 0.300049 53.0992 0.300049C85.0992 0.300049 104.699 21.8 105.299 49.9C105.299 77.4 85.0992 99.6001 51.7992 99.6001ZM464.399 458.1H365.199V281.1C365.199 239.9 350.799 211.9 314.899 211.9C287.499 211.9 271.199 230.8 263.999 249.1C261.299 255.6 260.699 264.8 260.699 273.9V458H161.399V240.6C161.399 200.7 160.099 167.4 158.799 138.7H244.999L249.499 183.1H251.499C264.599 162.3 296.599 131.5 350.099 131.5C415.399 131.5 464.299 175.2 464.299 269.3V458.1H464.399Z" fill="#7FFFFF"/>
</svg>
